<svg width="28" height="28" viewBox="0 0 28 28" fill="none" xmlns="http://www.w3.org/2000/svg">
<path d="M20.1777 14.7223C20.1889 13.8544 20.4194 13.0033 20.8479 12.2484C21.2764 11.4935 21.8888 10.8592 22.6283 10.4046C22.1585 9.73372 21.5388 9.1816 20.8183 8.79211C20.0979 8.40261 19.2965 8.18647 18.4779 8.16086C16.7316 7.97756 15.0388 9.20578 14.1489 9.20578C13.2418 9.20578 11.8718 8.17906 10.3964 8.20941C9.44213 8.24024 8.5121 8.51774 7.69695 9.01487C6.8818 9.51201 6.20933 10.2118 5.74505 11.0461C3.73394 14.5281 5.23405 19.6455 7.16056 22.4601C8.12444 23.8383 9.25093 25.3779 10.7249 25.3233C12.1673 25.2634 12.706 24.4035 14.4471 24.4035C16.1721 24.4035 16.6775 25.3233 18.1814 25.2886C19.7292 25.2634 20.7043 23.9042 21.6344 22.5129C22.327 21.5309 22.8599 20.4455 23.2134 19.297C22.3142 18.9167 21.5468 18.2801 21.007 17.4666C20.4672 16.6531 20.1787 15.6987 20.1777 14.7223Z" fill="#464646"/>
<path d="M17.337 6.30982C18.1809 5.29675 18.5967 3.99461 18.496 2.67993C17.2067 2.81535 16.0158 3.43155 15.1605 4.40575C14.7423 4.88168 14.422 5.43536 14.2179 6.03514C14.0138 6.63492 13.93 7.26904 13.9711 7.90125C14.616 7.90789 15.254 7.76811 15.837 7.49245C16.42 7.21679 16.9329 6.81243 17.337 6.30982Z" fill="#464646"/>
</svg>
