<svg width="28" height="28" viewBox="0 0 28 28" fill="none" xmlns="http://www.w3.org/2000/svg">
<path d="M5.46624 4.12288C5.20881 4.43178 5.07888 4.82723 5.10293 5.22862V22.6993C5.07888 23.1007 5.20881 23.4962 5.46624 23.8051L5.52943 23.8682L15.3152 14.0745V13.8376L5.52943 4.05969L5.46624 4.12288Z" fill="url(#paint0_linear_39_939)"/>
<path d="M18.5774 17.3444L15.3154 14.0746V13.8376L18.5774 10.5757L18.6484 10.6231L22.479 12.8267C23.5848 13.4506 23.5848 14.4774 22.479 15.1013L18.6169 17.297L18.5774 17.3444Z" fill="url(#paint1_linear_39_939)"/>
<path d="M18.6488 17.297L15.3158 13.964L5.4668 23.8051C5.69147 24.0046 5.97921 24.1187 6.27959 24.1274C6.57997 24.1361 6.87381 24.0387 7.10961 23.8525L18.6488 17.297Z" fill="url(#paint2_linear_39_939)"/>
<path d="M18.6488 10.631L7.10961 4.07552C6.87381 3.88925 6.57997 3.79192 6.27959 3.80058C5.97921 3.80925 5.69147 3.92336 5.4668 4.12291L15.3158 13.964L18.6488 10.631Z" fill="url(#paint3_linear_39_939)"/>
<path opacity="0.2" d="M18.5777 17.2339L7.10961 23.742C6.8821 23.9137 6.60483 24.0066 6.3198 24.0066C6.03476 24.0066 5.75749 23.9137 5.52998 23.742L5.4668 23.7972L5.52998 23.8604C5.75696 24.0334 6.03444 24.127 6.3198 24.127C6.60516 24.127 6.88263 24.0334 7.10961 23.8604L18.6488 17.305L18.5777 17.2339Z" fill="black"/>
<path opacity="0.12" d="M5.4667 23.6946C5.20734 23.3836 5.07729 22.985 5.10338 22.5809V22.6994C5.07934 23.1008 5.20927 23.4962 5.4667 23.8051L5.52988 23.7499L5.4667 23.6946Z" fill="black"/>
<path opacity="0.12" d="M22.4793 14.9907L18.5303 17.2259L18.6014 17.297L22.4793 15.1013C22.7068 15.0034 22.9037 14.8462 23.0496 14.6461C23.1955 14.4461 23.285 14.2105 23.3087 13.964C23.2601 14.188 23.1598 14.3975 23.0158 14.5757C22.8718 14.754 22.6881 14.8962 22.4793 14.9907Z" fill="black"/>
<path opacity="0.25" d="M7.10964 4.18613L22.4794 12.9373C22.6882 13.0319 22.8719 13.174 23.0159 13.3523C23.1599 13.5306 23.2602 13.7401 23.3087 13.964C23.2851 13.7176 23.1956 13.482 23.0497 13.2819C22.9038 13.0818 22.7069 12.9246 22.4794 12.8267L7.10964 4.07556C6.0039 3.44371 5.10352 3.96499 5.10352 5.22869V5.38665C5.10352 4.08346 6.0039 3.56218 7.10964 4.18613Z" fill="white"/>
<defs>
<linearGradient id="paint0_linear_39_939" x1="14.4464" y1="5.04696" x2="1.18545" y2="18.3001" gradientUnits="userSpaceOnUse">
<stop stop-color="#00A0FF"/>
<stop offset="0.01" stop-color="#00A1FF"/>
<stop offset="0.26" stop-color="#00BEFF"/>
<stop offset="0.51" stop-color="#00D2FF"/>
<stop offset="0.76" stop-color="#00DFFF"/>
<stop offset="1" stop-color="#00E3FF"/>
</linearGradient>
<linearGradient id="paint1_linear_39_939" x1="23.9481" y1="13.964" x2="4.83459" y2="13.964" gradientUnits="userSpaceOnUse">
<stop stop-color="#FFE000"/>
<stop offset="0.41" stop-color="#FFBD00"/>
<stop offset="0.78" stop-color="#FFA500"/>
<stop offset="1" stop-color="#FF9C00"/>
</linearGradient>
<linearGradient id="paint2_linear_39_939" x1="16.8322" y1="15.7806" x2="-1.13605" y2="33.7488" gradientUnits="userSpaceOnUse">
<stop stop-color="#FF3A44"/>
<stop offset="1" stop-color="#C31162"/>
</linearGradient>
<linearGradient id="paint3_linear_39_939" x1="2.98678" y1="-1.69012" x2="11.0192" y2="6.33439" gradientUnits="userSpaceOnUse">
<stop stop-color="#32A071"/>
<stop offset="0.07" stop-color="#2DA771"/>
<stop offset="0.48" stop-color="#15CF74"/>
<stop offset="0.8" stop-color="#06E775"/>
<stop offset="1" stop-color="#00F076"/>
</linearGradient>
</defs>
</svg>
